<?xml version="1.0" encoding="UTF-8" standalone="no"?>
<!-- Created with Inkscape (http://www.inkscape.org/) -->

<svg
   version="1.0"
   width="400"
   height="400"
   id="svg1"
   sodipodi:docname="zlr_logo.svg"
   xml:space="preserve"
   inkscape:version="1.1.2 (0a00cf5339, 2022-02-04)"
   inkscape:export-filename="/home/damien/Downloads/zlr_logo.png"
   inkscape:export-xdpi="360"
   inkscape:export-ydpi="360"
   xmlns:inkscape="http://www.inkscape.org/namespaces/inkscape"
   xmlns:sodipodi="http://sodipodi.sourceforge.net/DTD/sodipodi-0.dtd"
   xmlns="http://www.w3.org/2000/svg"
   xmlns:svg="http://www.w3.org/2000/svg"><sodipodi:namedview
     id="namedview3153"
     pagecolor="#fffffc"
     bordercolor="#666666"
     borderopacity="1.0"
     inkscape:showpageshadow="2"
     inkscape:pageopacity="0"
     inkscape:pagecheckerboard="false"
     inkscape:deskcolor="#d1d1d1"
     showgrid="false"
     inkscape:zoom="2.0848225"
     inkscape:cx="172.19691"
     inkscape:cy="216.32537"
     inkscape:window-width="2560"
     inkscape:window-height="1363"
     inkscape:window-x="0"
     inkscape:window-y="0"
     inkscape:window-maximized="1"
     inkscape:current-layer="layer1"
     inkscape:pageshadow="2"
     width="400px"><inkscape:page
       x="0"
       y="0"
       width="425"
       height="400"
       id="page5619" /><inkscape:page
       x="435"
       y="0"
       width="746.66669"
       height="533.33331"
       id="page5621" /><inkscape:page
       x="1191.6667"
       y="0"
       width="746.66669"
       height="533.33331"
       id="page9691" /></sodipodi:namedview><defs
     id="defs1"><rect
       x="224.52445"
       y="274.31725"
       width="224.33559"
       height="249.44328"
       id="rect24322" /><rect
       x="-22.927183"
       y="-15.765927"
       width="498.20588"
       height="447.2918"
       id="rect28517" /><rect
       x="-138.8305"
       y="-58.71956"
       width="162.19177"
       height="118.85671"
       id="rect32580" /><rect
       x="224.82101"
       y="206.32275"
       width="180.53061"
       height="149.02583"
       id="rect12031" /><rect
       x="135.81616"
       y="168.17624"
       width="94.019241"
       height="108.81213"
       id="rect12025" /><rect
       x="162.59229"
       y="172.32378"
       width="147.94194"
       height="140.35046"
       id="rect12019" /><rect
       x="46.498112"
       y="46.896469"
       width="389.57327"
       height="350.25177"
       id="rect11963" /><clipPath
       clipPathUnits="userSpaceOnUse"
       id="clipPath5611"><path
         d="M 0,400 H 560 V 0 H 0 Z"
         id="path5609" /></clipPath><rect
       x="46.498112"
       y="46.896469"
       width="389.57327"
       height="350.25177"
       id="rect11963-3" /><clipPath
       clipPathUnits="userSpaceOnUse"
       id="clipPath5611-6"><path
         d="M 0,400 H 560 V 0 H 0 Z"
         id="path5609-7" /></clipPath></defs><style
     type="text/css"
     id="style4" /><g
     inkscape:groupmode="layer"
     id="layer2"
     inkscape:label="backgr"
     style="display:inline"
     sodipodi:insensitive="true"><rect
       style="fill:#333333;fill-opacity:1;stroke:none;stroke-width:5.19999;stroke-linecap:round;stroke-linejoin:bevel;stroke-miterlimit:3.5;stroke-dasharray:none;stroke-opacity:1;stop-color:#000000"
       id="rect15168"
       width="400"
       height="400"
       x="0"
       y="0"
       ry="0.41086143" /></g><g
     inkscape:groupmode="layer"
     id="layer3"
     inkscape:label="map"
     style="display:inline"><g
       transform="matrix(41.706526,0,0,-43.088535,-991.32525,-578.41618)"
       id="Simbabwe"
       style="fill:#668000;stroke:none;stroke-width:0.106;stroke-linejoin:round;stroke-miterlimit:4;stroke-dasharray:none;stroke-dashoffset:0;stroke-opacity:1;paint-order:fill markers stroke"><path
         d="m 32.901908,-19.852163 c -0.277547,-0.229746 -0.55251,-0.558656 -0.435471,-0.64871 -0.376264,-0.0099 -0.0057,-0.542249 -0.08053,-0.625063 -0.08882,-0.179267 -0.279191,-0.38835 -0.394255,-0.622262 -0.2244,-0.226676 -0.439193,-0.475053 -0.686223,-0.671882 -0.13195,0.118779 -0.31881,0.08679 -0.49338,0.125999 -0.185292,-3.3e-4 -0.425362,-0.113881 -0.582087,-0.0033 -0.213348,-0.02016 -0.395365,0.231812 -0.631815,0.145747 -0.205214,-0.08101 -0.368623,0.06424 -0.557518,0.156199 0.02686,0.191385 -0.0027,0.229204 -0.221995,0.257724 -0.240084,0.196458 -0.705421,-0.0071 -0.85326,0.281987 -0.117192,0.257238 -0.37799,0.419018 -0.23896,0.729683 0.08951,0.313939 -0.252742,0.293659 -0.433216,0.321371 0.116408,0.388803 -0.28991,0.381893 -0.549062,0.467039 -0.219616,0.120709 -0.416882,0.29633 -0.603718,0.453389 -0.119632,0.282754 -0.155293,0.528262 -0.346964,0.742011 -0.11404,0.310852 -0.54617,0.569458 -0.53225,0.9343 0.236199,-0.112687 0.519028,0.04287 0.666558,-0.206757 0.185998,0.07536 0.350086,0.140676 0.571522,0.01131 0.203756,-0.106663 0.527909,-0.02617 0.647675,0.196228 0.287937,0.271346 0.485664,0.59791 0.747581,0.886159 0.302969,0.154059 0.624821,0.302642 0.920029,0.446076 0.02399,0.274155 0.01469,0.556643 0.341544,0.660367 0.340097,0.211154 0.74145,0.203418 1.118761,0.176709 0.333278,0.116376 -0.04131,-0.527422 0.387233,-0.362019 0.31839,-0.04319 0.59585,0.07314 0.855877,-0.175388 0.325231,-0.0244 0.44792,-0.379931 0.810329,-0.271738 0.270065,-0.04183 0.213983,-0.299528 0.420868,-0.305478 -0.284732,-0.23219 0.370834,-0.553648 0.147391,-0.824435 0.006,0.03829 -0.27506,-0.437976 -0.10991,-0.676279 0.177995,-0.251089 -0.191435,-0.156366 -0.01081,-0.41066 -0.145387,-0.0084 -0.202865,-0.285085 0.01814,-0.365966 0.239448,-0.06197 -0.149782,-0.385355 0.05643,-0.485326 -0.07916,-0.303407 0.01123,-0.06272 0.05149,-0.337035 z"
         style="fill:#668000;fill-opacity:1;stroke:none;stroke-width:0.106;stroke-linejoin:round;stroke-miterlimit:4;stroke-dasharray:none;stroke-dashoffset:0;stroke-opacity:1;paint-order:fill markers stroke"
         id="path7"
         sodipodi:nodetypes="cccccccccccccccccccccccccccccccccc" /></g></g><g
     inkscape:groupmode="layer"
     id="layer1"
     inkscape:label="fist"
     style="display:inline"><g
       id="g5605"
       transform="matrix(0.34630422,-0.00771376,-0.00872658,-0.32593902,-23.178197,199.92607)"
       inkscape:label="fist"
       style="fill:#ff5555"><g
         id="g5607"
         clip-path="url(#clipPath5611-6)"
         style="fill:#ff5555"><g
           id="g5613"
           transform="translate(265.6953,287.8314)"
           style="fill:#ff5555"><g
             id="g11162"
             style="fill:#ff5555"><path
               d="m 0,0 c -4.957,1.665 -29.777,12.693 -30.254,13.443 -0.94,1.476 -0.962,1.435 5.615,10.356 3.432,4.654 8.788,11.935 11.903,16.181 7.054,9.614 9.413,12.189 11.173,12.189 1.624,0 8.993,-5.266 18.457,-13.188 5.599,-4.687 6.652,-5.936 6.231,-7.398 C 22.466,29.285 3.239,0.328 2.096,-0.089 1.614,-0.266 0.67,-0.225 0,0 m 28.046,-25.524 c 0.357,5.724 0.27,9.801 -0.227,10.691 -0.442,0.791 -4.963,3.483 -10.046,5.982 -5.404,2.659 -9.342,5.095 -9.485,5.868 -0.234,1.272 18.631,30.557 20.471,31.778 2.792,1.852 4.881,0.42 17.414,-11.941 L 58.911,4.292 57.624,1.99 C 56.916,0.724 51.795,-6.147 46.245,-13.278 40.693,-20.41 34.708,-28.165 32.941,-30.511 c -4.967,-6.601 -5.581,-5.976 -4.895,4.987 M -5.282,-54.173 c -13.662,5.132 -15.409,6.097 -14.297,7.897 0.556,0.898 1.52,0.92 5.361,0.123 5.106,-1.06 9.71,-0.701 20.718,1.62 14.966,3.154 16.085,2.917 13.357,-2.83 -1.733,-3.655 -9.337,-11.809 -10.949,-11.742 -0.654,0.026 -7.039,2.246 -14.19,4.932 M 29.689,-67.6 c -6.241,2.899 -11.526,5.451 -11.746,5.671 -1.115,1.115 3.02,7.228 21.453,31.711 22.72,30.177 23.29,30.858 25.026,29.864 2.619,-1.498 23.336,-22.161 23.336,-23.273 0,-1.816 -0.868,-2.852 -30.108,-35.934 -4.741,-5.362 -9.311,-10.573 -10.157,-11.579 -2.38,-2.829 -5.376,-2.234 -17.804,3.54 m 26.879,-17.079 c -5.938,6.352 -7.09,7.994 -6.5,9.27 0.395,0.853 4.042,5.133 8.107,9.512 4.064,4.379 8.934,9.75 10.822,11.935 1.889,2.185 3.952,4.493 4.588,5.128 0.636,0.635 4.846,5.31 9.357,10.389 4.512,5.079 8.672,9.415 9.246,9.635 2.023,0.776 20.759,-21.207 20.759,-24.356 0,-1.129 -2.6,-3.444 -19.049,-16.958 -7.071,-5.81 -16.007,-13.212 -19.859,-16.448 -3.851,-3.236 -7.733,-5.872 -8.627,-5.855 -0.982,0.018 -4.481,3.084 -8.844,7.748 M 32.3,-227.506 c -3.23,0.371 -4.064,2.598 -3.504,9.355 1.647,19.901 2.959,34.699 3.326,37.517 0.232,1.788 1.133,10.899 2.002,20.249 0.868,9.347 1.945,17.365 2.396,17.814 0.547,0.548 2.035,0.538 4.513,-0.028 2.033,-0.466 3.876,-0.556 4.096,-0.2 0.22,0.355 -1.74,4.238 -4.356,8.627 -2.614,4.389 -7.419,12.551 -10.676,18.137 -3.256,5.587 -6.744,11.438 -7.749,13.001 -1.005,1.565 -6.494,10.822 -12.197,20.572 -7.18,12.275 -10.109,17.987 -9.524,18.572 0.586,0.586 3.056,0.552 8.032,-0.11 5.812,-0.773 9.283,-1.895 18.156,-5.867 17.504,-7.838 17.978,-8.145 27.317,-17.714 5.764,-5.906 9.331,-8.952 10.483,-8.952 1.892,0 5.247,2.222 20.643,13.669 5.516,4.102 10.359,7.458 10.761,7.458 1.618,0 1.517,-2.869 -0.532,-15.168 -5.013,-30.098 -10.855,-44.749 -23.275,-58.374 l -5.707,-6.26 0.479,-35.155 c 0.439,-32.193 0.365,-35.248 -0.877,-36.277 -1.046,-0.867 -4.801,-1.123 -16.464,-1.123 -8.31,0 -16.115,0.116 -17.343,0.257 m -58.948,-0.119 c -6.91,0.243 -9.285,0.604 -9.616,1.464 -0.49,1.28 0.324,8.189 3.354,28.463 1.136,7.597 2.787,19.115 3.67,25.596 0.882,6.48 2.172,15.171 2.867,19.311 0.694,4.142 1.006,7.981 0.692,8.533 -1.551,2.727 -9.237,14.216 -21.057,31.474 -22.766,33.239 -35.051,51.516 -36.432,54.199 -2.12,4.121 -1.627,5.885 3.757,13.445 2.784,3.909 6.708,9.5 8.719,12.425 10.1,14.687 28.279,40.292 29.8,41.974 0.732,0.807 1.974,1.469 2.761,1.469 1.301,0 49.799,-21.081 58.435,-25.4 2.309,-1.155 3.918,-2.611 4.395,-3.977 0.886,-2.543 -0.853,-16.247 -2.315,-18.247 -1.114,-1.524 -4.312,-2.186 -19.386,-4.014 -14.445,-1.752 -16.217,-1.21 -24.696,7.543 -3.221,3.324 -6.204,5.828 -6.63,5.565 -0.922,-0.57 0.841,-7.842 2.54,-10.479 3.337,-5.177 2.05,-7.593 -4.622,-8.677 -5.09,-0.826 -7.02,-1.911 -5.707,-3.207 0.424,-0.419 6.502,-2.924 13.505,-5.567 9.417,-3.554 13.273,-5.419 14.803,-7.161 1.14,-1.295 2.083,-2.577 2.097,-2.848 0.014,-0.271 1.813,-3.562 3.997,-7.313 33.632,-57.763 32.874,-56.383 32.263,-58.819 -0.308,-1.224 -2.379,-3.267 -5.386,-5.309 -2.688,-1.824 -4.659,-3.687 -4.381,-4.137 0.279,-0.45 2.39,-0.705 4.694,-0.565 l 4.185,0.254 -0.197,-7.72 c -0.109,-4.246 -1.12,-18.872 -2.246,-32.503 -3.356,-40.603 -3.622,-43.331 -4.346,-44.503 -0.657,-1.062 -32.28,-1.873 -49.517,-1.269"
               style="fill:#ff5555;fill-opacity:1;fill-rule:nonzero;stroke:none"
               id="path5615" /></g></g></g></g></g><path
     style="fill:#000000;fill-opacity:1;stroke:#000000;stroke-width:4.45668;stroke-linecap:butt;stroke-linejoin:round;stroke-miterlimit:4;stroke-dasharray:none;stroke-opacity:1;paint-order:markers stroke fill;stop-color:#000000"
     id="path1701"
     d="m 354.71803,341.80531 c -3.45086,3.20083 -6.90153,6.40114 -10.29525,9.66141 -3.58482,3.45026 -6.96012,7.10103 -10.23184,10.84062 -2.34724,2.70226 -4.70464,5.39457 -6.84794,8.25978 -1.56156,2.18765 -2.94984,4.48844 -4.46069,6.70943 -0.9192,1.37222 -1.91,2.69444 -2.90072,4.01616 -0.77154,1.04453 -1.54348,2.08899 -2.35287,3.10525 -0.60015,0.83878 -1.33319,1.55757 -2.09269,2.25178 -0.38942,0.34745 -0.79368,0.68092 -1.22073,0.98247 -1.20364,0.65238 -1.2971,0.83871 3.28339,-1.90836 0.0601,-0.036 -0.13474,0.041 -0.20425,0.0507 -0.19166,0.0267 -0.36795,0.004 -0.56065,-0.009 -1.33059,-0.12715 -2.59372,-0.5695 -3.84241,-1.01515 -2.2759,-0.8202 -4.51256,-1.73995 -6.73841,-2.68355 -1.7074,-0.73941 -3.45867,-1.36534 -5.24546,-1.88664 -2.13232,-0.63224 -4.3645,-0.64809 -6.56959,-0.65273 -2.72042,0.0187 -5.44091,0.007 -8.16137,0.0187 -2.10459,0.003 -4.20937,0.0294 -6.31189,0.12484 -0.99815,0.0208 -1.96995,0.25241 -2.95387,0.38652 -1.78895,0.0395 -3.58179,-0.19578 -5.35276,-0.42937 -1.91428,-0.26927 -3.73601,-0.88961 -5.46587,-1.72683 -1.08413,-0.52832 -1.98625,-1.32772 -2.95171,-2.0311 -1.88193,-1.291 -4.05587,-2.0406 -6.21919,-2.72363 -2.77501,-0.89063 -5.65645,-1.16459 -8.55656,-1.15686 -2.97884,0.11306 -5.90197,0.7416 -8.80533,1.3655 -2.7396,0.64132 -5.48189,1.25841 -8.26359,1.69262 -1.32342,0.14829 -2.72954,0.3701 -4.0105,-0.13396 -0.70412,-0.27708 -1.02596,-0.57517 -1.6311,-1.0187 -1.60436,-1.39583 -3.07686,-2.93214 -4.57605,-4.4362 -0.73484,-0.92994 -2.65435,-2.13469 -2.98952,-3.27233 -0.0661,-0.22445 -0.0344,-0.46636 -0.0517,-0.69954 0.42468,-2.09425 1.94561,-3.68727 3.22428,-5.32526 0.98322,-1.43 0.94027,-2.29995 -0.30828,-3.4856 -1.57008,-1.1856 -3.54557,-1.54854 -5.44125,-1.90266 -2.58221,-0.43431 -5.19125,-0.67557 -7.78475,-1.02969 -2.31784,-0.34904 -4.60148,-0.88389 -6.88499,-1.40261 -2.81625,-0.63758 -5.60712,-1.37901 -8.40244,-2.09978 -2.35818,-0.62534 -4.72935,-1.20051 -7.11483,-1.71426 -1.19536,-0.23984 -2.37893,-0.53611 -3.58015,-0.74663 -1.02755,-0.15267 -2.01586,-0.48518 -3.00358,-0.79356 -1.86097,-0.5894 -3.04909,-2.14369 -4.19208,-3.61651 -1.31773,-1.68188 -2.11369,-3.64355 -2.79956,-5.63841 -0.49596,-1.61127 -1.31415,-3.07166 -2.27581,-4.44984 -1.07399,-1.50237 -2.49386,-2.68124 -3.96424,-3.78322 -0.81618,-0.71493 -2.04174,-1.17181 -2.61979,-2.13922 -0.3964,-0.66338 -0.31241,-1.07977 -0.35961,-1.85215 0.35615,-3.33895 1.23528,-6.61266 2.06854,-9.86267 0.73502,-2.86446 1.84026,-5.61933 2.36229,-8.53455 0.27659,-2.56669 -0.48007,-3.80286 -2.32955,-5.502 -2.09313,-1.66496 -4.70409,-2.25469 -7.28017,-2.74644 -2.12805,-0.41152 -4.29169,-0.57924 -6.43475,-0.88705 -0.50934,-0.1418 -0.82536,-0.16923 -1.24155,-0.5161 -1.04397,-0.87008 -1.46372,-2.44853 -1.91748,-3.6532 -0.81432,-2.3088 -1.36554,-4.70179 -2.31632,-6.96159 -1.05634,-2.16435 -3.04422,-3.39812 -5.12951,-4.45939 -2.65541,-1.23169 -5.52866,-1.87771 -8.34791,-2.62572 -2.75523,-0.74456 -5.46613,-1.63659 -8.14375,-2.61748 -2.21337,-0.80356 -4.31684,-1.85902 -6.37855,-2.98248 -2.33112,-1.18768 -3.98241,-3.18759 -5.70312,-5.07829 -2.1382,-2.26534 -4.47847,-4.31977 -6.56503,-6.63372 -2.06391,-2.43214 -4.0217,-4.95513 -5.799116,-7.59987 -1.584558,-2.45779 -2.647109,-5.18367 -3.703342,-7.89067 -0.898631,-2.19199 -1.480534,-4.49062 -2.320949,-6.70209 -0.807638,-2.03744 -2.407072,-3.51458 -3.964042,-4.99655 -1.393802,-1.40145 -2.883606,-2.70048 -4.355588,-4.01901 -1.323776,-1.24308 -0.722144,-2.31482 0.01888,-3.67453 0.629081,-1.06167 0.458548,-2.10896 -0.0046,-3.18355 -0.386069,-0.88218 -1.021714,-1.57448 -1.7027,-2.24117 -1.572705,-1.44261 -3.21492,-2.80682 -4.7702,-4.26798 -2.230269,-2.23703 -4.1659,-4.74002 -6.146754,-7.19077 -1.633433,-1.98917 -3.267237,-3.97896 -4.748915,-6.0826 -0.77821,-1.06861 -1.441524,-2.20237 -1.966278,-3.41151 -0.651999,-1.6484 -1.347533,-3.27896 -2.055548,-4.90443 -0.72228,-1.68319 -1.460552,-3.36 -2.165888,-5.05026 -0.02765,-0.18438 -0.467012,-0.73612 -0.229434,-0.95436 0.168415,-0.1547 0.846387,-0.34368 0.651333,-0.22347 -1.243751,0.76653 -2.521221,1.47815 -3.781832,2.21722 1.936053,-0.62121 3.981266,-0.80458 5.99764,-0.99052 1.659789,-0.18026 3.323538,-0.16825 4.986786,-0.068 1.906016,0.16687 3.817154,0.24344 5.729604,0.28356 1.394438,-0.0295 2.767791,0.13407 4.133118,0.39464 1.152783,0.26163 2.339439,0.4305 3.434329,0.88866 0.971758,0.59106 1.650103,1.55693 2.373327,2.41043 0.836174,0.94808 1.683199,2.10882 3.016179,2.36099 0.262874,0.0497 0.534001,0.0365 0.801001,0.0547 1.802537,-0.1327 3.43353,-0.95706 5.034752,-1.72123 1.093803,-0.50105 2.135667,-1.12667 3.291302,-1.48015 1.767325,-0.35226 3.574915,-0.10249 5.319695,0.24773 2.26039,0.56113 4.44137,1.39566 6.62657,2.18862 2.20356,0.79613 4.38734,1.64381 6.5952,2.42832 1.23367,0.39565 2.48117,0.88854 3.80018,0.88113 0.79431,-0.005 1.09364,-0.11478 1.86179,-0.28665 1.81792,-0.53811 3.47004,-1.47675 5.12694,-2.36902 1.8764,-1.03383 3.77722,-2.02038 5.70893,-2.94875 3.23282,-1.68125 6.79226,-3.04809 9.44125,-5.58668 1.64787,-2.01193 3.20325,-4.10328 4.64905,-6.26218 1.53335,-2.58539 2.84932,-5.28185 4.41281,-7.85136 1.59944,-2.74358 3.74898,-5.07167 5.99162,-7.30476 1.6581,-1.59389 3.3648,-3.14519 5.22118,-4.51123 0.68002,-0.56811 1.5402,-0.91468 2.18615,-1.52518 0.38139,-0.36047 0.46937,-0.55692 0.76774,-1.00853 0.9713,-1.71954 1.96875,-3.41831 3.17008,-4.9913 1.64135,-1.99657 3.77539,-3.49098 5.91773,-4.91257 0.78149,-0.50006 1.56559,-0.99648 2.36646,-1.46584 0.31769,-0.18618 1.27702,-0.73414 0.95802,-0.55019 -3.35542,1.93502 -4.08584,2.32227 -1.77048,1.05641 2.13971,-1.11797 4.26676,-2.25578 6.36981,-3.43988 2.22291,-1.23943 4.4625,-2.45233 6.75751,-3.55659 1.72375,-0.82788 3.50534,-1.52499 5.301,-2.18256 1.7681,-0.61246 3.55834,-1.16078 5.34832,-1.7067 1.22201,-0.38001 2.46091,-0.70534 3.68168,-1.0891 2.02539,-0.84957 4.55305,-1.52905 5.70246,-3.4381 0.22651,-0.37621 0.29053,-0.6988 0.41343,-1.11635 0.28954,-1.64965 0.73736,-3.26451 1.08129,-4.90254 0.25358,-2.03876 0.51136,-4.06942 0.90608,-6.08733 0.4696,-1.98035 0.55805,-4.01456 0.83195,-6.02323 0.28806,-1.74758 0.58498,-3.52041 1.44076,-5.09228 1.2532,-1.52852 2.9059,-2.69371 4.5772,-3.7378 -6.58515,3.77168 -3.70374,1.64481 -1.02193,1.60235 2.27076,0.089 2.76772,-1.07942 5.52532,-3.01317 0.11454,-0.0803 -0.0203,-0.27719 -0.0263,-0.416 -0.0207,-0.48306 -0.0216,-0.32007 0.0648,-0.81026 0.22965,-0.46047 0.2542,-0.58308 0.63138,-0.98977 0.4717,-0.5086 0.95785,-0.84397 1.55347,-1.21823 0.41886,-0.26319 1.70415,-1.00638 1.28295,-0.74688 -1.00855,0.62138 -2.03015,1.22175 -3.04522,1.83263 3.62668,-1.75237 7.45473,-3.03283 11.32741,-4.129625 4.18265,-1.087707 8.35643,-2.208096 12.53313,-3.317926 3.88234,-1.067795 7.83066,-1.862742 11.80498,-2.505944 2.5791,-0.441244 5.17684,-0.695268 7.79345,-0.639259 1.35345,0.06635 2.7063,0.19046 4.04071,0.427781 0.0276,0.0056 0.34071,0.06544 0.40842,0.09052 0.085,0.03152 -0.0224,0.178431 -0.0318,0.267851 -0.15726,1.508602 0.0762,-0.595501 -0.1652,1.536667 -0.42338,3.212627 -0.6047,6.448485 -0.90781,9.672825 -0.17912,1.924 -0.4479,3.84119 -0.54796,5.77181 -0.0358,0.4043 -0.0366,0.67888 0.18535,1.00849 0.0752,0.0378 0.14173,0.10565 0.22577,0.11352 0.32585,0.0305 1.8216,-0.18658 2.11813,-0.20713 1.17425,-0.0814 1.8719,-0.11164 3.07133,-0.17358 2.81217,-0.11975 5.62723,-0.17807 8.44196,-0.16228 2.37483,-0.0609 4.68637,0.40746 6.96528,1.01362 2.02198,0.57059 3.80609,1.3273 5.93941,1.14364 2.01039,-0.57177 3.86319,-1.55554 5.84654,-2.22124 2.49568,-0.8007 4.64441,-0.26567 7.03383,0.58017 2.8337,1.19972 5.58283,2.59525 8.21451,4.1819 1.97191,1.31457 3.87564,2.73403 5.72524,4.21234 1.48416,1.25505 2.66855,2.77889 4.21748,3.96196 1.17561,0.89877 2.69165,1.20159 3.85904,2.09708 0.81763,1.00248 1.23833,2.26219 1.68856,3.45607 0.27408,0.78223 0.46957,1.58393 1.09582,2.16164 1.40751,0.7174 3.1008,0.64062 4.64299,0.67777 2.85182,-0.006 5.70264,0.003 8.55264,0.10951 2.07627,0.0785 4.15089,0.16188 6.20624,0.47522 2.14196,0.4799 4.21129,1.23555 6.29701,1.90913 1.86076,0.57439 3.70209,1.18978 5.23332,2.41116 1.04489,0.95814 1.7063,2.21485 2.41382,3.41742 0.88668,1.52456 2.56453,1.76177 4.18611,1.93164 1.12414,0.12014 2.42368,-0.0913 3.36056,0.64939 0.0429,0.099 0.12139,0.18954 0.12856,0.29702 0.054,0.81034 -1.36471,2.20663 -1.84539,2.76847 -1.22836,1.40032 -2.36174,2.86622 -3.09355,4.58054 -0.6419,1.6964 -0.26376,3.39282 0.22047,5.0703 0.71942,2.21568 1.68818,4.33924 2.54446,6.50405 0.83277,2.15891 1.25246,4.43766 1.75258,6.6863 0.49502,2.06718 0.84895,4.15179 0.99418,6.27086 0.13198,2.08235 -0.0475,4.14638 -0.45622,6.18749 -0.69935,2.64884 -1.62765,5.22519 -2.28476,7.88688 -0.7476,3.02314 -0.54679,5.74509 0.12691,8.74406 1.02646,3.26766 2.34833,6.43354 3.47611,9.66761 0.42399,1.57651 1.38627,3.43114 0.67578,5.07595 -0.10321,0.23892 -0.26286,0.44988 -0.39429,0.67483 -1.21702,1.51893 -2.44713,3.01057 -3.3706,4.72671 -0.87899,1.78658 -0.9838,3.77356 -1.10943,5.72091 -0.0451,2.16834 -0.71119,2.75484 -2.42676,3.92472 -1.93745,1.20615 -3.8039,2.49009 -5.19002,4.31158 -1.17152,2.04491 -0.88861,3.87152 -0.14623,6.00415 1.10175,2.49783 3.13091,4.34642 5.15707,6.11394 1.28469,1.24507 2.9998,2.17524 3.99452,3.69909 0.14332,0.21955 0.23815,0.46662 0.35724,0.69994 0.48509,1.88055 -0.56504,3.66388 -1.40884,5.28883 -1.18208,2.08431 -2.16174,4.23713 -2.59451,6.59426 -0.25831,2.39124 0.5152,4.65733 1.4945,6.80372 0.96616,1.92658 2.38232,3.55308 3.94119,5.02899 0.81282,0.72377 1.69493,1.35964 2.23822,2.31471 0.57569,1.13652 0.30039,2.21758 -0.15591,3.33581 -0.90658,1.89445 -2.45804,3.35742 -3.93727,4.8157 -1.83842,1.81945 -3.85617,3.45216 -5.55869,5.40142 -1.48541,1.77715 -1.93683,3.99969 -2.30878,6.21112 -0.2592,1.9981 -0.56119,3.9826 -1.16701,5.90878 -0.66371,1.87229 -1.56747,3.03198 -3.21727,4.1352 -2.77854,1.50931 0.70576,-0.37346 4.06852,-2.38973 0.24784,-0.1486 -0.52254,0.24811 -0.78318,0.37343 -0.24786,0.11919 -0.50301,0.22487 -0.7423,0.3601 -6.403,3.61831 -4.55378,2.07732 -6.96723,4.17524 -1.15405,1.15511 -1.96793,2.58898 -2.58653,4.08184 -0.45631,1.28118 -0.3892,2.61739 -0.24796,3.9442 0.32861,2.02297 1.37975,3.8224 2.25691,5.64914 0.93501,1.95558 1.46298,4.0379 1.69315,6.17977 0.15209,1.44036 -0.4213,2.59582 -1.30425,3.68615 -0.90462,0.99879 -1.77837,2.02254 -2.58495,3.10055 -0.82985,1.08442 -1.4892,2.27912 -2.13455,3.47601 -0.5255,0.93243 -0.97421,1.90189 -1.37856,2.89084 -0.27254,0.68625 -0.54322,1.37759 -0.63948,2.11178 -0.0517,0.77353 0.29379,1.26536 1.00398,1.55039 0.62579,0.0478 1.40824,0.14875 2.01059,-0.10984 0.26231,-0.11262 0.50494,-0.26565 0.75741,-0.39847 0.794,-0.58628 1.588,-1.17257 2.382,-1.75884 0,0 -0.12557,0.0508 -0.12557,0.0508 v 0 c 0.68398,-0.48657 1.36796,-0.97313 2.05194,-1.4597 0.0697,-0.11343 0.22865,-0.20894 0.20912,-0.34028 -0.009,-0.061 -1.60377,0.22032 -1.7535,0.20987 -0.58429,0.0503 -0.54727,-0.12626 -0.47695,-0.66626 0.16295,-0.67714 0.41669,-1.3278 0.68035,-1.97209 0.41381,-0.96441 0.87717,-1.90515 1.39065,-2.82182 0.64447,-1.16759 1.31672,-2.32233 2.15115,-3.3703 0.84348,-1.0636 1.7649,-2.06172 2.60379,-3.12848 0.82369,-1.25999 1.266,-2.59357 1.05803,-4.11493 -0.29998,-2.19446 -0.90374,-4.32131 -1.84644,-6.3359 -0.83231,-1.76749 -1.82083,-3.52465 -2.07589,-5.48648 -0.0994,-1.23884 -0.1119,-2.47783 0.39176,-3.64421 0.65868,-1.41656 1.47912,-2.77763 2.7096,-3.78318 2.14647,-1.52962 1.13422,-0.77563 -4.43318,2.40804 -0.23923,0.1368 0.48645,-0.2598 0.7348,-0.37963 0.26323,-0.127 0.54324,-0.22014 0.79938,-0.36061 5.89326,-3.23177 4.52851,-2.38115 7.30835,-4.1581 1.52693,-1.238 2.47842,-2.64176 3.04938,-4.52523 0.54708,-1.95468 0.82452,-3.95589 1.10661,-5.9623 0.39558,-2.13836 0.93863,-4.2258 2.45948,-5.87964 1.75049,-1.88658 3.73063,-3.54028 5.55084,-5.35942 1.51655,-1.52542 3.08275,-3.07944 3.88978,-5.10749 0.42921,-1.31286 0.58362,-2.58491 -0.0724,-3.86086 -0.58598,-1.02446 -1.46174,-1.73845 -2.38647,-2.46363 -1.53727,-1.37944 -2.92561,-2.91914 -3.85534,-4.7745 -0.91652,-2.04036 -1.62081,-4.19333 -1.28761,-6.45496 0.49929,-2.29308 1.52445,-4.38093 2.66081,-6.43048 0.90821,-1.84114 1.88152,-3.79146 1.16406,-5.86077 -0.14356,-0.26742 -0.26252,-0.54927 -0.43068,-0.80227 -1.03325,-1.55443 -2.75858,-2.52384 -4.10246,-3.77551 -1.95297,-1.6724 -3.93415,-3.41635 -4.96469,-5.82068 -0.62255,-1.96065 -0.79896,-3.67356 0.46332,-5.43047 1.48122,-1.70476 3.37911,-2.90817 5.25066,-4.1567 1.75457,-1.39803 2.13142,-2.2122 2.1968,-4.4453 0.12773,-1.87777 0.29461,-3.77496 1.2349,-5.45588 1.00074,-1.68221 2.31196,-3.12944 3.36961,-4.77148 0.1104,-0.27332 0.25281,-0.53601 0.33119,-0.81995 0.49848,-1.80596 -0.48606,-3.63239 -0.99079,-5.31396 -1.14206,-3.20275 -2.48606,-6.33865 -3.42723,-9.60774 -0.65076,-2.91218 -0.7333,-5.55651 0.007,-8.47545 0.69622,-2.67217 1.64503,-5.26659 2.31321,-7.94486 0.36906,-2.09056 0.51485,-4.20321 0.34423,-6.32406 -0.20265,-2.11946 -0.70685,-4.17164 -1.28652,-6.21951 -0.53674,-2.2657 -0.95962,-4.57528 -1.88397,-6.72844 -0.90113,-2.11937 -1.88698,-4.21167 -2.56781,-6.41454 -0.4413,-1.57239 -0.77895,-3.12085 -0.0688,-4.67715 0.795,-1.63358 1.93574,-3.04841 3.12483,-4.41993 0.89268,-1.09288 2.17518,-2.43283 1.30524,-3.8857 -1.07224,-0.997 -2.23033,-0.88692 -3.62247,-0.92844 -1.42908,-0.0965 -3.02841,-0.13902 -3.84934,-1.47797 -0.75774,-1.25226 -1.45842,-2.56784 -2.53458,-3.58901 -1.58062,-1.2949 -3.47552,-1.97092 -5.42785,-2.54355 -2.0965,-0.68586 -4.16547,-1.47163 -6.30478,-2.01603 -2.07924,-0.34548 -4.18258,-0.43668 -6.28759,-0.50606 -2.84686,-0.10315 -5.69391,-0.10968 -8.54224,-0.1284 -1.45498,-0.0262 -2.93458,-0.0183 -4.34373,-0.42843 -0.64531,-0.34185 -0.69356,-1.2453 -1.00677,-1.83359 -0.51062,-1.28505 -0.98648,-2.63797 -1.89536,-3.70648 -1.20843,-0.92106 -2.82524,-1.06493 -4.05753,-1.98057 -1.57439,-1.14852 -2.74336,-2.6916 -4.24251,-3.92792 -1.88666,-1.47867 -3.81241,-2.91477 -5.81005,-4.24362 -2.66658,-1.5938 -5.45664,-2.97511 -8.28811,-4.25825 -2.3423,-0.89485 -4.68442,-1.61863 -7.19428,-0.92358 -1.97874,0.62102 -3.84292,1.48812 -5.75556,2.27421 -0.25505,0.052 -0.50604,0.13009 -0.76511,0.15612 -1.75593,0.17643 -3.44434,-0.69572 -5.11583,-1.06105 -2.29904,-0.63333 -4.63584,-1.17 -7.03941,-1.13892 -2.83981,-0.009 -5.67862,0.089 -8.51653,0.18214 -0.33534,0.013 -2.57838,0.0999 -3.01107,0.11803 -0.14169,0.006 -1.817,0.0108 -2.02595,0.0979 -0.0458,0.0191 -0.0196,0.0965 -0.0294,0.1447 0.28525,0.5135 0.0188,-0.23054 0.10149,-0.41891 0.0238,-1.88984 0.23145,-3.77175 0.38094,-5.65427 0.27556,-3.237448 0.48432,-6.48491 1.00065,-9.696548 0.0941,-0.678869 0.47431,-1.880017 -0.0935,-2.485176 -0.0883,-0.09406 -0.3822,-0.145623 -0.48399,-0.17066 -1.37424,-0.255773 -2.77298,-0.360307 -4.16699,-0.444038 -2.66615,-0.08778 -5.31157,0.145432 -7.938,0.616759 -3.99613,0.64216 -7.97004,1.421124 -11.87475,2.489405 -4.15662,1.117197 -8.31375,2.231576 -12.48965,3.276703 -3.89614,1.078929 -7.73222,2.376466 -11.40939,4.057535 -2.11117,1.16671 -4.23308,2.31461 -6.33352,3.50015 -1.43539,0.81016 -2.96206,1.78029 -3.39467,3.45629 -0.0304,0.27898 -0.0159,0.56331 -0.0684,0.83905 -0.0106,0.056 -0.13095,0.17888 -0.0805,0.15139 1.56553,-0.85261 3.09246,-1.77304 4.64992,-2.63997 0.0916,-0.051 -0.1523,0.15119 -0.24954,0.19059 -0.14543,0.0589 -0.30738,0.0649 -0.46107,0.0973 -3.68024,0.43075 -3.93992,0.66963 -8.08748,3.39357 -1.67013,1.11945 -3.37964,2.31409 -4.50411,4.00323 -0.76084,1.65288 -1.06861,3.44554 -1.34207,5.23279 -0.26068,2.00477 -0.41356,4.02545 -0.8575,6.00318 -0.38129,2.02141 -0.62002,4.05891 -0.93628,6.08967 -0.35541,1.62307 -0.74644,3.23962 -1.12359,4.85744 -0.15404,0.39619 -0.18378,0.57744 -0.45338,0.90029 -0.087,0.10427 -0.42085,0.34028 -0.3006,0.27597 7.18903,-3.84509 4.91755,-2.75043 3.37816,-1.91081 -1.24025,0.47254 -2.53683,0.78575 -3.79641,1.20203 -1.78749,0.54329 -3.58066,1.07128 -5.34899,1.67364 -1.79887,0.65253 -3.59247,1.32523 -5.32404,2.14026 -2.31699,1.09885 -4.56662,2.3293 -6.81402,3.56019 -2.11001,1.18 -4.228,2.3437 -6.37679,3.45381 -3.37096,1.82248 -6.73791,3.6711 -9.94037,5.77371 -2.13602,1.46902 -4.2555,3.01817 -5.86585,5.06756 -1.18346,1.60886 -2.15285,3.34541 -3.23314,5.02095 -0.82727,0.99493 -1.91854,1.63467 -2.96623,2.38518 -1.80667,1.38956 -3.4789,2.93923 -5.09866,4.53691 -2.24216,2.27393 -4.39043,4.64683 -5.98231,7.42722 -1.53527,2.58094 -2.84339,5.28405 -4.43402,7.83244 -1.46676,2.14457 -2.99958,4.26965 -4.76679,6.18265 -0.22881,0.19324 -0.4471,0.39941 -0.68642,0.57974 -0.24251,0.18272 -1.02518,0.65089 -0.75689,0.50775 1.13836,-0.60734 2.2498,-1.26285 3.37021,-1.90203 0.31926,-0.18213 -0.64121,0.35977 -0.96664,0.53084 -0.32563,0.17118 -0.65668,0.33207 -0.9862,0.49577 -0.31208,0.15503 -0.62572,0.30694 -0.93857,0.46042 -1.94278,0.92025 -3.85332,1.90109 -5.73487,2.93898 -1.64474,0.88323 -3.27061,1.8267 -5.03902,2.45254 -0.68931,0.19975 -1.05364,0.34358 -1.77403,0.40103 -1.29804,0.10351 -2.5365,-0.35853 -3.75225,-0.73626 -2.22049,-0.76644 -4.41315,-1.60697 -6.62233,-2.40428 -2.19997,-0.79245 -4.38509,-1.64725 -6.64519,-2.25889 -1.76898,-0.38546 -3.57579,-0.65588 -5.39122,-0.46818 -1.221807,0.22961 -2.274544,0.90037 -3.387354,1.42386 -1.564157,0.76054 -3.138478,1.579 -4.871542,1.88277 -0.241724,0.013 -0.483533,0.0534 -0.725172,0.0389 -1.279063,-0.0764 -2.100807,-1.21424 -2.86734,-2.08983 -0.749939,-0.92307 -1.465704,-1.93122 -2.443518,-2.63018 -1.104731,-0.53577 -2.341185,-0.6821 -3.528543,-0.96049 -1.387227,-0.29906 -2.782832,-0.51052 -4.209285,-0.45093 -1.903807,-0.0337 -3.807363,-0.0817 -5.70331,-0.27141 -1.688815,-0.13545 -3.379061,-0.1642 -5.06662,0.0282 -2.015783,0.17756 -4.042927,0.35798 -6.013417,0.83509 -1.604214,0.8682 -3.223887,1.709 -4.812644,2.6046 -0.764232,0.43081 -0.410334,1.22561 -0.122349,1.82737 0.747973,1.67035 1.496669,3.34048 2.208473,5.02636 0.699604,1.63314 1.36305,3.28011 2.001081,4.93773 0.548598,1.23945 1.226024,2.40289 2.054208,3.48327 1.545889,2.07227 3.18917,4.06961 4.845759,6.05579 1.996354,2.46241 3.936331,4.98098 6.139611,7.26855 1.525814,1.47266 3.129652,2.85908 4.670011,4.31621 0.620969,0.62807 1.217079,1.27661 1.591815,2.08488 0.418207,0.97443 0.404905,1.8385 -0.149586,2.77529 -0.739551,1.55944 -1.068137,2.89088 0.298766,4.23817 1.47195,1.31338 2.965683,2.60283 4.359189,3.9998 1.509462,1.42531 3.077663,2.83231 3.85392,4.80461 0.840827,2.21135 1.443803,4.50397 2.350289,6.69271 1.086736,2.73096 2.187478,5.47766 3.789881,7.96212 1.784366,2.66827 3.764088,5.20277 5.837697,7.6571 2.07904,2.32068 4.41904,4.37528 6.55767,6.63949 1.73759,1.93877 3.39095,4.0056 5.74928,5.24484 2.0824,1.13758 4.19838,2.22813 6.44024,3.02997 2.69382,0.98708 5.42587,1.87128 8.19217,2.63867 2.78671,0.74849 5.63261,1.36426 8.27223,2.55431 1.99166,0.99078 3.90941,2.12748 4.94728,4.17019 0.98905,2.23035 1.56784,4.60446 2.36524,6.90457 0.53906,1.49253 1.07987,3.6255 2.65625,4.40299 0.22975,0.11332 0.48678,0.16149 0.73018,0.24222 2.15561,0.30954 4.33794,0.42588 6.48079,0.83079 2.50268,0.44968 5.0484,0.95544 7.10852,2.53493 1.75023,1.58037 2.38084,2.6753 2.09896,5.07375 -0.51963,2.8807 -1.5624,5.6256 -2.28258,8.45934 -0.8288,3.30701 -1.7439,6.63215 -2.06539,10.0304 0.0772,0.93004 -0.006,1.34874 0.46146,2.15158 0.58784,1.01026 1.82568,1.49892 2.68609,2.22058 1.43982,1.05666 2.82237,2.19994 3.86492,3.66086 0.94446,1.33551 1.73328,2.76069 2.23345,4.32165 0.73171,2.02868 1.55294,4.03838 2.89114,5.76223 1.17409,1.53863 2.40718,3.19679 4.29565,3.89821 0.99502,0.33686 1.99542,0.70287 3.03641,0.86944 1.24372,0.16122 2.47841,0.37519 3.70696,0.6267 2.40784,0.48323 4.79895,1.03798 7.17789,1.64589 2.80575,0.70234 5.60538,1.42959 8.41865,2.10185 2.29976,0.5337 4.60627,1.05665 6.94129,1.41702 2.60858,0.33587 5.23336,0.54415 7.82995,0.97002 1.82217,0.3302 3.72136,0.65697 5.28679,1.70046 1.18309,1.01571 0.93398,1.62555 0.0953,2.84628 -1.30328,1.70658 -2.81927,3.42706 -3.0766,5.63059 0.0414,0.28648 0.0334,0.58436 0.12417,0.85945 0.42435,1.2856 2.23152,2.34086 3.07122,3.36549 1.51202,1.51906 3.00391,3.06218 4.59919,4.49639 2.12946,1.64156 3.20462,1.79062 5.88261,1.42075 2.80084,-0.43828 5.56598,-1.04599 8.32197,-1.70421 2.89388,-0.63011 5.79979,-1.29135 8.76819,-1.4498 2.86436,-0.0399 5.71785,0.20569 8.46898,1.05097 2.1081,0.65821 4.22751,1.38343 6.04395,2.66595 0.98886,0.71924 1.90379,1.55265 3.01672,2.08763 1.79099,0.83851 3.68122,1.45255 5.63954,1.77348 1.77369,0.2527 3.5589,0.4593 5.34751,0.56619 1.00597,-0.0845 1.9774,-0.3933 2.99002,-0.44109 2.14547,-0.14979 4.29578,-0.21916 6.4462,-0.2492 2.71638,-0.0238 5.43253,-3e-5 8.14896,-0.0129 2.17001,-0.007 4.36881,-0.0241 6.47432,0.57515 1.78909,0.50207 3.54815,1.09488 5.26037,1.81656 2.23517,0.92844 4.47413,1.84766 6.73787,2.70642 1.25343,0.47522 2.50964,0.97375 3.85086,1.14467 1.82727,0.20517 3.38905,-0.37375 4.78861,-2.11682 0.28379,-0.31287 0.612,-0.58399 0.90912,-0.88388 0.71959,-0.70926 1.38771,-1.46507 1.99495,-2.27162 0.77869,-1.02074 1.53945,-2.05468 2.29707,-3.0908 0.96582,-1.3132 1.90687,-2.64433 2.8128,-3.9988 1.44791,-2.23654 2.83949,-4.51205 4.41284,-6.66597 2.15247,-2.83243 4.48466,-5.52094 6.80787,-8.21667 3.20658,-3.70989 6.51146,-7.33879 10.05786,-10.7365 3.37643,-3.24892 6.80971,-6.43809 10.23923,-9.63195 0,0 -2.96294,1.20295 -2.96294,1.20295 z" /><g
     inkscape:groupmode="layer"
     id="layer5"
     inkscape:label="bird"
     style="display:inline"><text
       xml:space="preserve"
       id="text32578"
       style="font-style:normal;font-weight:normal;font-size:40px;line-height:1.25;font-family:sans-serif;white-space:pre;shape-inside:url(#rect32580);fill:#000000;fill-opacity:1;stroke:none" /><path
       style="fill:none;stroke:#000000;stroke-width:5.51811;stroke-linecap:butt;stroke-linejoin:miter;stroke-miterlimit:4;stroke-dasharray:none;stroke-opacity:1"
       d="m 224.04046,228.18151 c 5.35033,-2.89186 12.89711,-2.81387 16.33832,2.99318 1.75302,2.95822 2.23526,6.53528 3.14775,9.80158 3.45324,12.36104 3.1109,27.38275 0.18737,39.88087 -0.73947,3.16124 -2.73402,6.26765 -4.3469,9.04276 -2.65255,4.56394 -8.09781,14.17516 -8.69378,19.37131 -0.65426,5.70427 3.94314,4.41289 4.49678,6.28144 0.43536,1.46932 0.16175,3.26841 0.48716,4.80594 0.84906,4.01185 2.44216,7.80681 3.14775,11.8673 0.84651,4.87152 1.77474,9.69887 2.28586,14.58645 0.0626,0.59821 -0.088,1.79779 0.52463,2.17111 4.03027,2.45594 19.44992,-0.63746 24.39506,-1.34904 3.83842,-0.55233 7.75766,-0.18971 11.6167,-0.18971 4.67632,0 9.33914,-0.23186 14.01498,-0.23186 7.75037,0 15.727,0.0442 23.34581,1.62305 2.99801,0.6213 5.81076,1.99573 8.80621,2.63484 0.49575,0.10577 6.87355,0.99511 7.11991,0.73775 3.00342,-3.1375 2.93694,-8.13905 3.74732,-12.09916 1.28787,-6.29348 2.39405,-12.70734 4.15953,-18.8865 0.73186,-2.56153 1.47932,-5.03291 1.9486,-7.67264 0.4709,-2.64878 1.84682,-13.40667 3.07281,-15.30312 0.62722,-0.97024 5.05481,-0.22114 6.22055,-0.37942 1.02757,-0.13952 2.04879,-0.17218 3.0728,-0.31618 0.0109,-0.002 0.42053,-0.0945 0.41221,-0.10539 -0.93354,-1.22528 -2.86979,-1.99208 -4.12206,-2.82455 -6.90726,-4.59176 -13.85049,-8.72171 -21.17236,-12.64721 -7.80576,-4.18492 -14.45803,-9.95035 -21.80941,-14.81831 -6.27754,-4.15689 -12.99234,-7.44812 -18.62419,-12.49966 -2.42843,-2.17821 -11.15718,-10.22763 -12.70342,-12.83692 -2.33289,-3.93675 -4.13288,-8.19867 -6.55781,-12.12024 -2.685,-4.34215 -6.10586,-8.23834 -8.91863,-12.47858 -1.67481,-2.52478 -5.91863,-8.70304 -8.88115,-9.67512 -6.1857,-2.02968 -12.21802,-0.50783 -16.07601,4.97457 -1.08587,1.54309 -2.48036,6.55117 -2.39828,6.36576 1.11937,-2.52846 -1.89999,-0.24974 -2.92291,0.12648 -1.2661,0.46566 -7.15859,6.27476 -6.37045,7.58832 0.3254,0.54234 0.6995,1.05394 1.04925,1.5809 z"
       id="path35755"
       sodipodi:nodetypes="csssssssssssssssssssssccssssssssssssc" /><path
       id="path35771-6"
       style="display:inline;fill:#ffd42a;stroke:#000000;stroke-width:5.51811;stroke-linecap:butt;stroke-linejoin:miter;stroke-miterlimit:4;stroke-dasharray:none;stroke-opacity:1"
       d="m 262.18819,339.37157 c 0.26299,0.86481 2.47974,11.9205 1.23557,7.98405 m -24.91864,-35.38634 c 0.68131,3.03104 1.15183,2.01665 -2.43576,4.11034 m 96.86826,3.49902 c 0.11435,0.0445 4.08458,1.79169 4.08458,1.79169 -0.45213,-0.20632 0.47734,0.13832 0,0 M 224.04046,228.18151 c 5.35033,-2.89186 12.89711,-2.81387 16.33832,2.99318 1.75302,2.95822 2.23526,6.53528 3.14775,9.80158 3.45324,12.36104 3.1109,27.38275 0.18737,39.88087 -0.73947,3.16124 -2.73402,6.26765 -4.3469,9.04276 -2.65255,4.56394 -8.09781,14.17516 -8.69378,19.37131 -0.65426,5.70427 3.94314,4.41289 4.49678,6.28144 0.43536,1.46932 0.16175,3.26841 0.48716,4.80594 0.84906,4.01185 2.44216,7.80681 3.14775,11.8673 0.84651,4.87152 1.77474,9.69887 2.28586,14.58645 0.0626,0.59821 -0.088,1.79779 0.52463,2.17111 4.03027,2.45594 19.44992,-0.63746 24.39506,-1.34904 3.83842,-0.55233 7.75766,-0.18971 11.6167,-0.18971 4.67632,0 9.33914,-0.23186 14.01498,-0.23186 7.75037,0 15.727,0.0442 23.34581,1.62305 2.99801,0.6213 5.81076,1.99573 8.80621,2.63484 0.49575,0.10577 6.87355,0.99511 7.11991,0.73775 3.00342,-3.1375 2.93694,-8.13905 3.74732,-12.09916 1.28787,-6.29348 2.39405,-12.70734 4.15953,-18.8865 0.73186,-2.56153 1.47932,-5.03291 1.9486,-7.67264 0.4709,-2.64878 1.84682,-13.40667 3.07281,-15.30312 0.62722,-0.97024 5.05481,-0.22114 6.22055,-0.37942 1.02757,-0.13952 2.04879,-0.17218 3.0728,-0.31618 0.0109,-0.002 0.42053,-0.0945 0.41221,-0.10539 -0.93354,-1.22528 -2.86979,-1.99208 -4.12206,-2.82455 -6.90726,-4.59176 -13.85049,-8.72171 -21.17236,-12.64721 -7.80576,-4.18492 -14.45803,-9.95035 -21.80941,-14.81831 -6.27754,-4.15689 -12.99234,-7.44812 -18.62419,-12.49966 -2.42843,-2.17821 -11.15718,-10.22763 -12.70342,-12.83692 -2.33289,-3.93675 -4.13288,-8.19867 -6.55781,-12.12024 -2.685,-4.34215 -6.10586,-8.23834 -8.91863,-12.47858 -1.67481,-2.52478 -5.91863,-8.70304 -8.88115,-9.67512 -6.1857,-2.02968 -12.21802,-0.50783 -16.07601,4.97457 -1.08587,1.54309 -2.48036,6.55117 -2.39828,6.36576 1.11937,-2.52846 -1.89999,-0.24974 -2.92291,0.12648 -1.2661,0.46566 -7.15859,6.27476 -6.37045,7.58832 0.3254,0.54234 0.6995,1.05394 1.04925,1.5809 z"
       sodipodi:nodetypes="ccccccccsssssssssssssssssssssccssssssssssssc" /><g
       id="g17188"
       transform="translate(-2,6)"><path
         style="fill:none;stroke:#000000;stroke-width:5.51811;stroke-linecap:butt;stroke-linejoin:miter;stroke-miterlimit:4;stroke-dasharray:none;stroke-opacity:1"
         d="m 238.06936,310.07962 c 26.24279,-4.12879 55.01084,-4.18135 81.24193,0.0632 5.16723,0.83613 10.71314,1.52251 15.62633,3.43582 0.11435,0.0445 4.08458,1.79169 4.08458,1.79169 -0.45213,-0.20632 0.47734,0.13832 0,0"
         id="path35757"
         sodipodi:nodetypes="csssc" /><path
         style="fill:none;stroke:#000000;stroke-width:5.51811;stroke-linecap:butt;stroke-linejoin:miter;stroke-miterlimit:4;stroke-dasharray:none;stroke-opacity:1"
         d="m 348.57787,291.10881 c -12.50577,2.71577 -24.50876,-1.95743 -36.76122,-3.49906 -10.75158,-1.35279 -23.10512,-2.32517 -32.18949,-8.81089 -4.32767,-3.0897 -7.98607,-7.37491 -10.94218,-11.76191 -0.44732,-0.66383 -0.63027,-1.77264 0,0"
         id="path35761"
         sodipodi:nodetypes="csssc" /><path
         style="fill:none;stroke:#000000;stroke-width:5.51811;stroke-linecap:butt;stroke-linejoin:miter;stroke-miterlimit:4;stroke-dasharray:none;stroke-opacity:1"
         d="m 287.98368,283.33077 c -1.51076,2.60364 -2.51223,5.61876 -4.87151,7.60941 -5.96235,5.03073 -13.47719,6.29512 -20.08565,10.01237 -2.0961,1.17906 -4.55439,2.49775 -5.80835,4.63731 -0.71746,1.22418 -1.4908,5.23506 -2.43576,3.68877"
         id="path35763" /><path
         style="fill:none;stroke:#000000;stroke-width:5.51811;stroke-linecap:butt;stroke-linejoin:miter;stroke-miterlimit:4;stroke-dasharray:none;stroke-opacity:1"
         d="m 255.98156,269.35561 c 0.26305,2.86007 -0.74211,5.73845 -1.34904,8.51578 -0.53056,2.42788 -0.86043,5.10994 -1.76124,7.44078 -2.11345,5.46856 -6.1576,10.30237 -9.48072,15.09234 -0.87816,1.26578 -2.51175,2.1307 -3.26017,3.39366 -0.22365,0.3774 0.29343,1.80941 0.37473,2.17111 0.68131,3.03104 1.15183,2.01665 -2.43576,4.11034"
         id="path35765" /><path
         style="fill:none;stroke:#000000;stroke-width:5.51811;stroke-linecap:butt;stroke-linejoin:miter;stroke-miterlimit:4;stroke-dasharray:none;stroke-opacity:1"
         d="m 254.78241,309.27863 c 1.64883,1.04691 1.60216,2.23668 2.71837,3.8394 0.11242,0.16141 3.68201,9.54402 3.68955,9.58772 0.64412,3.73267 1.90762,7.08059 2.99786,10.66582 0.26299,0.86481 2.47974,11.9205 1.23557,7.98405"
         id="path35767"
         sodipodi:nodetypes="cscsc" /><path
         style="fill:none;stroke:#000000;stroke-width:5.51811;stroke-linecap:butt;stroke-linejoin:miter;stroke-miterlimit:4;stroke-dasharray:none;stroke-opacity:1"
         d="m 343.12382,303.99846 c -1.40169,-0.093 -1.80432,0.0466 -2.87608,-0.39295 -2.35307,-0.96515 -4.28443,-2.40108 -6.77153,-3.16335 -7.37411,-2.2601 -15.53187,-2.36169 -23.19067,-2.98651 -6.7355,-0.54949 -13.49813,-1.56606 -20.20538,-2.37741 -2.73749,-0.33114 -5.46615,-0.60469 -8.22777,-0.62873 -1.16935,-0.0102 -2.31467,0.11611 -3.45858,0.33402 -0.31407,0.0599 -0.83135,0.59247 -0.91015,0.29471 -0.0629,-0.23729 0.0364,0.24233 0,0"
         id="path35771"
         sodipodi:nodetypes="ccssssscc" /></g><path
       style="fill:none;stroke:#000000;stroke-width:6.933;stroke-linecap:butt;stroke-linejoin:miter;stroke-miterlimit:4;stroke-dasharray:none;stroke-opacity:1"
       d="m 249.86978,187.44081 c -4.84288,0.13602 -9.88067,-0.15191 -14.61707,1.2522 -15.81029,4.68697 -27.94335,19.75746 -27.94335,38.19217"
       id="path36106" /><path
       style="display:inline;fill:none;stroke:#000000;stroke-width:7.601;stroke-linecap:butt;stroke-linejoin:miter;stroke-miterlimit:4;stroke-dasharray:none;stroke-opacity:1"
       d="m 249.39905,176.82515 c -6.1535,0.17214 -12.55465,-0.19224 -18.57285,1.5847 -20.08899,5.93151 -35.50559,25.00367 -35.50559,48.33337"
       id="path36106-5" /><path
       style="display:inline;fill:none;stroke:#000000;stroke-width:7.37981;stroke-linecap:butt;stroke-linejoin:miter;stroke-miterlimit:4;stroke-dasharray:none;stroke-opacity:1"
       d="m 248.68246,165.01343 c -7.44795,0.21507 -15.19567,-0.24019 -22.47987,1.97992 -24.31495,7.41081 -42.97462,31.23954 -42.97462,60.38762"
       id="path36106-3" /></g><g
     inkscape:groupmode="layer"
     id="layer4"
     inkscape:label="text"
     style="display:inline"><text
       xml:space="preserve"
       id="text11961"
       style="font-style:normal;font-weight:normal;font-size:90.6667px;line-height:0.82;font-family:sans-serif;letter-spacing:0.01px;word-spacing:0.04px;white-space:pre;shape-inside:url(#rect11963-3);shape-padding:0.0666906;display:inline;fill:#000000;fill-opacity:1;stroke:none"
       transform="translate(-50.493254,-30.147822)"
       inkscape:label="text1"
       x="523.76416"
       y="0"><tspan
         x="82.294494"
         y="107.72202"
         id="tspan6306"><tspan
           dx="0 0 0 -0.04000549 0.040003054 0 0 0 -0.039997861"
           style="font-weight:600;font-family:'League Spartan';-inkscape-font-specification:'League Spartan Semi-Bold';text-align:end;text-anchor:end;fill:#fbf6f6"
           id="tspan6304">ZIM LEFT
</tspan></tspan><tspan
         x="186.17756"
         y="182.1688"
         id="tspan6310"><tspan
           style="font-weight:600;font-family:'League Spartan';-inkscape-font-specification:'League Spartan Semi-Bold';text-align:end;text-anchor:end;fill:#fbf6f6"
           id="tspan6308">RADIO</tspan></tspan></text><text
       xml:space="preserve"
       id="text28515"
       style="font-style:normal;font-weight:normal;font-size:40px;line-height:1.25;font-family:sans-serif;white-space:pre;shape-inside:url(#rect28517);fill:#000000;fill-opacity:1;stroke:none" /><text
       xml:space="preserve"
       id="text24320"
       style="font-style:normal;font-weight:normal;font-size:40px;line-height:1.25;font-family:sans-serif;white-space:pre;shape-inside:url(#rect24322);fill:#000000;fill-opacity:1;stroke:none" /></g></svg>
